<?xml version="1.0" standalone="no"?>
<!DOCTYPE svg PUBLIC "-//W3C//DTD SVG 20010904//EN"
 "http://www.w3.org/TR/2001/REC-SVG-20010904/DTD/svg10.dtd">
<svg version="1.0" xmlns="http://www.w3.org/2000/svg"
 width="96.000000pt" height="96.000000pt" viewBox="0 0 96.000000 96.000000"
 preserveAspectRatio="xMidYMid meet">
<metadata>
Created by potrace 1.14, written by Peter Selinger 2001-2017
</metadata>
<g transform="translate(0.000000,96.000000) scale(0.100000,-0.100000)"
fill="#000000" stroke="none">
<path d="M200 920 l0 -40 280 0 280 0 0 40 0 40 -280 0 -280 0 0 -40z"/>
<path d="M97 741 c-86 -87 -97 -102 -97 -133 0 -46 26 -77 70 -84 49 -8 90 29
90 82 0 26 15 62 55 129 30 52 55 96 55 99 0 3 -17 6 -38 6 -35 0 -46 -8 -135
-99z"/>
<path d="M313 828 c-5 -7 -33 -52 -61 -99 -61 -102 -67 -145 -26 -186 51 -50
133 -9 134 67 0 30 15 119 35 208 5 20 2 22 -34 22 -21 0 -43 -6 -48 -12z"/>
<path d="M430 783 c-6 -32 -15 -69 -19 -83 -4 -14 -9 -48 -10 -76 -2 -44 1
-56 24 -78 54 -55 135 -15 135 66 0 24 -4 59 -9 78 -5 19 -15 61 -21 93 l-11
57 -39 0 -39 0 -11 -57z"/>
<path d="M576 768 c8 -40 16 -82 18 -93 3 -11 5 -39 5 -62 1 -60 39 -97 90
-89 20 3 44 15 54 27 32 39 21 86 -41 189 -57 93 -59 95 -99 98 l-41 3 14 -73z"/>
<path d="M697 823 c4 -10 29 -54 55 -98 34 -57 48 -91 48 -117 0 -47 38 -88
81 -88 41 0 79 42 79 88 0 30 -12 46 -97 133 -89 91 -100 99 -135 99 -31 0
-36 -3 -31 -17z"/>
<path d="M40 240 l0 -240 440 0 440 0 0 240 0 240 -440 0 -440 0 0 -240z m800
40 l0 -120 -360 0 -360 0 0 120 0 120 360 0 360 0 0 -120z"/>
</g>
</svg>
